<svg xmlns="http://www.w3.org/2000/svg" id="info" viewBox="0 0 64 64">
  <circle cx="32" cy="32" r="30" style="fill:#2E4766"></circle>
  <circle cx="32" cy="32" r="25" style="fill:#1e3a5f"></circle>
  <circle cx="32" cy="20" r="3" style="fill:#fff"></circle>
  <path d="m38.5,44.65c-.04.63-.31,1.2-.73,1.62-.45.45-1.08.73-1.77.73h-6.84c-1.46,0-2.74-1.2-2.66-2.65.04-.63.31-1.2.73-1.62.45-.45,1.08-.73,1.77-.73h1v-12h-.84c-1.46,0-2.74-1.2-2.66-2.65.04-.63.31-1.2.73-1.62.45-.45,1.08-.73,1.77-.73h4c1.1,0,2,.9,2,2v15h.84c1.46,0,2.74,1.2,2.66,2.65Z" style="fill:#fff"></path>       
</svg>
